<svg xmlns="http://www.w3.org/2000/svg" viewBox="-285 408.9 24 24"><path d="M-266.6 432.9h-12.7c-3.1 0-5.7-2.5-5.7-5.7v-12.7c0-3.1 2.5-5.7 5.7-5.7h12.7c3.1 0 5.7 2.5 5.7 5.7v12.7c0 3.2-2.5 5.7-5.7 5.7z" fill="#448aff"/><path d="M-265 418.5v-1.6h-1.6v-1.6c0-.9-.7-1.6-1.6-1.6h-11.1c-.9 0-1.6.7-1.6 1.6v11.1c0 .9.7 1.6 1.6 1.6h11.1c.9 0 1.6-.7 1.6-1.6v-1.6h1.6v-1.6h-1.6v-1.6h1.6V420h-1.6v-1.6h1.6v.1zm-3.2 7.9h-11.1v-11.1h11.1v11.1zm-9.4-4.7h3.9v3.2h-3.9v-3.2zm4.7-4.8h3.2v2.4h-3.2v-2.4zm-4.7 0h3.9v3.9h-3.9v-3.9zm4.7 3.2h3.2v4.7h-3.2v-4.7z" fill="#fff"/><path d="M-284.9 408.9h24v24h-24v-24zm0 0h24v24h-24v-24z" fill="none"/></svg>